<mxfile host="65bd71144e">
    <diagram id="7CR0NjEIgGmz26PmDw4Y" name="Page-1">
        <mxGraphModel dx="644" dy="478" grid="1" gridSize="10" guides="1" tooltips="1" connect="1" arrows="1" fold="1" page="1" pageScale="1" pageWidth="850" pageHeight="1100" background="none" math="0" shadow="0">
            <root>
                <mxCell id="0"/>
                <mxCell id="1" parent="0"/>
                <mxCell id="P0C5Q6WggpXPjWnDMGDd-1" value="Actor" style="shape=umlActor;verticalLabelPosition=bottom;verticalAlign=top;html=1;outlineConnect=0;" parent="1" vertex="1">
                    <mxGeometry x="160" y="200" width="30" height="60" as="geometry"/>
                </mxCell>
                <mxCell id="P0C5Q6WggpXPjWnDMGDd-2" value="Use Case" style="ellipse;whiteSpace=wrap;html=1;" parent="1" vertex="1">
                    <mxGeometry x="320" y="210" width="140" height="70" as="geometry"/>
                </mxCell>
                <mxCell id="P0C5Q6WggpXPjWnDMGDd-3" value="Actor" style="shape=umlActor;verticalLabelPosition=bottom;verticalAlign=top;html=1;" parent="1" vertex="1">
                    <mxGeometry x="570" y="205" width="30" height="60" as="geometry"/>
                </mxCell>
            </root>
        </mxGraphModel>
    </diagram>
</mxfile>